<?xml version="1.0" encoding="UTF-8" standalone="no"?><svg xmlns="http://www.w3.org/2000/svg" xmlns:xlink="http://www.w3.org/1999/xlink" contentScriptType="application/ecmascript" contentStyleType="text/css" height="536px" preserveAspectRatio="none" style="width:838px;height:536px;" version="1.1" viewBox="0 0 838 536" width="838px" zoomAndPan="magnify"><defs><filter height="300%" id="f1ro6532cmolnu" width="300%" x="-1" y="-1"><feGaussianBlur result="blurOut" stdDeviation="2.0"/><feColorMatrix in="blurOut" result="blurOut2" type="matrix" values="0 0 0 0 0 0 0 0 0 0 0 0 0 0 0 0 0 0 .4 0"/><feOffset dx="4.0" dy="4.0" in="blurOut2" result="blurOut3"/><feBlend in="SourceGraphic" in2="blurOut3" mode="normal"/></filter></defs><g><!--MD5=[ec4e9ac521a71f7b069122f6baf1b57e]
class Pessoa--><rect fill="#FFFFE0" filter="url(#f1ro6532cmolnu)" height="117.9316" id="Pessoa" style="stroke: #000000; stroke-width: 1.5;" width="91" x="606.5" y="181.5"/><ellipse cx="629.6" cy="197.5" fill="#A9DCDF" rx="11" ry="11" style="stroke: #000000; stroke-width: 1.0;"/><path d="M631.6781,202 Q630.5531,202 630.5531,201.1563 Q630.5531,200.2969 631.6781,200.2969 L632.0688,200.2969 L631.6781,199.3125 L627.6313,199.3125 L627.2406,200.2969 L627.6313,200.2969 Q628.7406,200.2969 628.7406,201.1563 Q628.7406,202 627.6313,202 L625.3656,202 Q624.2406,202 624.2406,201.1563 Q624.2406,200.2969 625.3813,200.2969 L628.0219,193.7813 L626.9438,193.7813 Q625.8031,193.7813 625.8031,192.9375 Q625.8031,192.0938 626.9438,192.0938 L630.6156,192.0938 L634.0063,200.2969 Q635.1625,200.2969 635.1625,201.1563 Q635.1625,202 634.0375,202 L631.6781,202 Z M630.975,197.6094 L629.6469,194.3438 L628.3031,197.6094 L630.975,197.6094 Z "/><text fill="#000000" font-family="sans-serif" font-size="12" font-style="italic" lengthAdjust="spacingAndGlyphs" textLength="41" x="645.4" y="201.751">Pessoa</text><line style="stroke: #000000; stroke-width: 1.5;" x1="607.5" x2="696.5" y1="213.5" y2="213.5"/><text fill="#000000" font-family="sans-serif" font-size="11" lengthAdjust="spacingAndGlyphs" textLength="55" x="612.5" y="230.1382">#id: Integer</text><text fill="#000000" font-family="sans-serif" font-size="11" lengthAdjust="spacingAndGlyphs" textLength="68" x="612.5" y="247.6211">#nome: String</text><text fill="#000000" font-family="sans-serif" font-size="11" lengthAdjust="spacingAndGlyphs" textLength="79" x="612.5" y="265.104">#telefone: String</text><text fill="#000000" font-family="sans-serif" font-size="11" lengthAdjust="spacingAndGlyphs" textLength="66" x="612.5" y="282.5869">#email: String</text><line style="stroke: #000000; stroke-width: 1.5;" x1="607.5" x2="696.5" y1="291.4316" y2="291.4316"/><!--MD5=[20a748d5ee336a9a91751b0a3d4f0beb]
class Cliente--><rect fill="#FFFFE0" filter="url(#f1ro6532cmolnu)" height="65.4829" id="Cliente" style="stroke: #000000; stroke-width: 1.5;" width="137" x="338.5" y="17"/><ellipse cx="383.25" cy="33" fill="#ADD1B2" rx="11" ry="11" style="stroke: #000000; stroke-width: 1.0;"/><path d="M384.5938,28.6719 L384.7656,28.75 Q385.0625,28.3438 385.4844,28.3438 Q386.3281,28.3438 386.3281,29.4688 L386.3281,30.8906 Q386.3281,32.0156 385.4844,32.0156 Q385.0938,32.0156 384.9219,31.8125 Q384.75,31.6094 384.6563,31.1094 Q384.5313,30.5156 383.8125,30.1563 Q383.0938,29.7969 382.25,29.7969 Q380.9688,29.7969 380.1094,30.6719 Q379.2656,31.5469 379.2656,32.8906 L379.2656,33.9844 Q379.2656,35.2656 380.1719,36.0313 Q381.0781,36.7813 382.6094,36.7813 Q383.0469,36.7813 383.4063,36.7344 Q383.7813,36.6719 384,36.6094 Q384.2188,36.5469 384.4531,36.4063 Q384.6875,36.2656 384.75,36.2031 Q384.8125,36.1406 384.9688,35.9688 L385.125,35.8125 Q385.3906,35.5469 385.7344,35.5469 Q386.0781,35.5469 386.3281,35.8125 Q386.5938,36.0625 386.5938,36.3906 Q386.5938,37.1094 385.4531,37.7969 Q384.3125,38.4844 382.5625,38.4844 Q380.4063,38.4844 378.9844,37.2188 Q377.5625,35.9531 377.5625,34.0156 L377.5625,32.8906 Q377.5625,30.8594 378.8906,29.4844 Q380.2188,28.0938 382.1875,28.0938 Q383.375,28.0938 384.5938,28.6719 Z "/><text fill="#000000" font-family="sans-serif" font-size="12" lengthAdjust="spacingAndGlyphs" textLength="39" x="403.75" y="37.251">Cliente</text><line style="stroke: #000000; stroke-width: 1.5;" x1="339.5" x2="474.5" y1="49" y2="49"/><text fill="#000000" font-family="sans-serif" font-size="11" lengthAdjust="spacingAndGlyphs" textLength="125" x="344.5" y="65.6382">-dataCadastro: LocalDate</text><line style="stroke: #000000; stroke-width: 1.5;" x1="339.5" x2="474.5" y1="74.4829" y2="74.4829"/><!--MD5=[5befbbde3a9a02fcfa2675eb222efcce]
class Profissional--><rect fill="#FFFFE0" filter="url(#f1ro6532cmolnu)" height="82.9658" id="Profissional" style="stroke: #000000; stroke-width: 1.5;" width="116" x="523" y="8"/><ellipse cx="547" cy="24" fill="#ADD1B2" rx="11" ry="11" style="stroke: #000000; stroke-width: 1.0;"/><path d="M548.3438,19.6719 L548.5156,19.75 Q548.8125,19.3438 549.2344,19.3438 Q550.0781,19.3438 550.0781,20.4688 L550.0781,21.8906 Q550.0781,23.0156 549.2344,23.0156 Q548.8438,23.0156 548.6719,22.8125 Q548.5,22.6094 548.4063,22.1094 Q548.2813,21.5156 547.5625,21.1563 Q546.8438,20.7969 546,20.7969 Q544.7188,20.7969 543.8594,21.6719 Q543.0156,22.5469 543.0156,23.8906 L543.0156,24.9844 Q543.0156,26.2656 543.9219,27.0313 Q544.8281,27.7813 546.3594,27.7813 Q546.7969,27.7813 547.1563,27.7344 Q547.5313,27.6719 547.75,27.6094 Q547.9688,27.5469 548.2031,27.4063 Q548.4375,27.2656 548.5,27.2031 Q548.5625,27.1406 548.7188,26.9688 L548.875,26.8125 Q549.1406,26.5469 549.4844,26.5469 Q549.8281,26.5469 550.0781,26.8125 Q550.3438,27.0625 550.3438,27.3906 Q550.3438,28.1094 549.2031,28.7969 Q548.0625,29.4844 546.3125,29.4844 Q544.1563,29.4844 542.7344,28.2188 Q541.3125,26.9531 541.3125,25.0156 L541.3125,23.8906 Q541.3125,21.8594 542.6406,20.4844 Q543.9688,19.0938 545.9375,19.0938 Q547.125,19.0938 548.3438,19.6719 Z "/><text fill="#000000" font-family="sans-serif" font-size="12" lengthAdjust="spacingAndGlyphs" textLength="64" x="563" y="28.251">Profissional</text><line style="stroke: #000000; stroke-width: 1.5;" x1="524" x2="638" y1="40" y2="40"/><text fill="#000000" font-family="sans-serif" font-size="11" lengthAdjust="spacingAndGlyphs" textLength="104" x="529" y="56.6382">-especialidade: String</text><text fill="#000000" font-family="sans-serif" font-size="11" lengthAdjust="spacingAndGlyphs" textLength="71" x="529" y="74.1211">-ativo: boolean</text><line style="stroke: #000000; stroke-width: 1.5;" x1="524" x2="638" y1="82.9658" y2="82.9658"/><!--MD5=[faf4d635eea35b16677487bac6ad9bf5]
class Servico--><rect fill="#FFFFE0" filter="url(#f1ro6532cmolnu)" height="117.9316" id="Servico" style="stroke: #000000; stroke-width: 1.5;" width="134" x="6" y="398.5"/><ellipse cx="48.45" cy="414.5" fill="#ADD1B2" rx="11" ry="11" style="stroke: #000000; stroke-width: 1.0;"/><path d="M49.7938,410.1719 L49.9656,410.25 Q50.2625,409.8438 50.6844,409.8438 Q51.5281,409.8438 51.5281,410.9688 L51.5281,412.3906 Q51.5281,413.5156 50.6844,413.5156 Q50.2938,413.5156 50.1219,413.3125 Q49.95,413.1094 49.8563,412.6094 Q49.7313,412.0156 49.0125,411.6563 Q48.2938,411.2969 47.45,411.2969 Q46.1688,411.2969 45.3094,412.1719 Q44.4656,413.0469 44.4656,414.3906 L44.4656,415.4844 Q44.4656,416.7656 45.3719,417.5313 Q46.2781,418.2813 47.8094,418.2813 Q48.2469,418.2813 48.6063,418.2344 Q48.9813,418.1719 49.2,418.1094 Q49.4188,418.0469 49.6531,417.9063 Q49.8875,417.7656 49.95,417.7031 Q50.0125,417.6406 50.1688,417.4688 L50.325,417.3125 Q50.5906,417.0469 50.9344,417.0469 Q51.2781,417.0469 51.5281,417.3125 Q51.7938,417.5625 51.7938,417.8906 Q51.7938,418.6094 50.6531,419.2969 Q49.5125,419.9844 47.7625,419.9844 Q45.6063,419.9844 44.1844,418.7188 Q42.7625,417.4531 42.7625,415.5156 L42.7625,414.3906 Q42.7625,412.3594 44.0906,410.9844 Q45.4188,409.5938 47.3875,409.5938 Q48.575,409.5938 49.7938,410.1719 Z "/><text fill="#000000" font-family="sans-serif" font-size="12" lengthAdjust="spacingAndGlyphs" textLength="41" x="68.55" y="418.751">Servico</text><line style="stroke: #000000; stroke-width: 1.5;" x1="7" x2="139" y1="430.5" y2="430.5"/><text fill="#000000" font-family="sans-serif" font-size="11" lengthAdjust="spacingAndGlyphs" textLength="53" x="12" y="447.1382">-id: Integer</text><text fill="#000000" font-family="sans-serif" font-size="11" lengthAdjust="spacingAndGlyphs" textLength="66" x="12" y="464.6211">-nome: String</text><text fill="#000000" font-family="sans-serif" font-size="11" lengthAdjust="spacingAndGlyphs" textLength="73" x="12" y="482.104">-preco: Double</text><text fill="#000000" font-family="sans-serif" font-size="11" lengthAdjust="spacingAndGlyphs" textLength="122" x="12" y="499.5869">-duracaoMinutos: Integer</text><line style="stroke: #000000; stroke-width: 1.5;" x1="7" x2="139" y1="508.4316" y2="508.4316"/><!--MD5=[1978c666a0b6725a868af5a1e6b80fe0]
class Agendamento--><rect fill="#FFFFE0" filter="url(#f1ro6532cmolnu)" height="135.4146" id="Agendamento" style="stroke: #000000; stroke-width: 1.5;" width="148" x="250" y="173"/><ellipse cx="282.55" cy="189" fill="#ADD1B2" rx="11" ry="11" style="stroke: #000000; stroke-width: 1.0;"/><path d="M283.8938,184.6719 L284.0656,184.75 Q284.3625,184.3438 284.7844,184.3438 Q285.6281,184.3438 285.6281,185.4688 L285.6281,186.8906 Q285.6281,188.0156 284.7844,188.0156 Q284.3938,188.0156 284.2219,187.8125 Q284.05,187.6094 283.9563,187.1094 Q283.8313,186.5156 283.1125,186.1563 Q282.3938,185.7969 281.55,185.7969 Q280.2688,185.7969 279.4094,186.6719 Q278.5656,187.5469 278.5656,188.8906 L278.5656,189.9844 Q278.5656,191.2656 279.4719,192.0313 Q280.3781,192.7813 281.9094,192.7813 Q282.3469,192.7813 282.7063,192.7344 Q283.0813,192.6719 283.3,192.6094 Q283.5188,192.5469 283.7531,192.4063 Q283.9875,192.2656 284.05,192.2031 Q284.1125,192.1406 284.2688,191.9688 L284.425,191.8125 Q284.6906,191.5469 285.0344,191.5469 Q285.3781,191.5469 285.6281,191.8125 Q285.8938,192.0625 285.8938,192.3906 Q285.8938,193.1094 284.7531,193.7969 Q283.6125,194.4844 281.8625,194.4844 Q279.7063,194.4844 278.2844,193.2188 Q276.8625,191.9531 276.8625,190.0156 L276.8625,188.8906 Q276.8625,186.8594 278.1906,185.4844 Q279.5188,184.0938 281.4875,184.0938 Q282.675,184.0938 283.8938,184.6719 Z "/><text fill="#000000" font-family="sans-serif" font-size="12" lengthAdjust="spacingAndGlyphs" textLength="77" x="300.45" y="193.251">Agendamento</text><line style="stroke: #000000; stroke-width: 1.5;" x1="251" x2="397" y1="205" y2="205"/><text fill="#000000" font-family="sans-serif" font-size="11" lengthAdjust="spacingAndGlyphs" textLength="53" x="256" y="221.6382">-id: Integer</text><text fill="#000000" font-family="sans-serif" font-size="11" lengthAdjust="spacingAndGlyphs" textLength="81" x="256" y="239.1211">-data: LocalDate</text><text fill="#000000" font-family="sans-serif" font-size="11" lengthAdjust="spacingAndGlyphs" textLength="83" x="256" y="256.604">-hora: LocalTime</text><text fill="#000000" font-family="sans-serif" font-size="11" lengthAdjust="spacingAndGlyphs" textLength="136" x="256" y="274.0869">-status: StatusAgendamento</text><text fill="#000000" font-family="sans-serif" font-size="11" lengthAdjust="spacingAndGlyphs" textLength="100" x="256" y="291.5698">-observacoes: String</text><line style="stroke: #000000; stroke-width: 1.5;" x1="251" x2="397" y1="300.4146" y2="300.4146"/><!--MD5=[1753751c87c25f689804f2380ef6b009]
class Pagamento--><rect fill="#FFFFE0" filter="url(#f1ro6532cmolnu)" height="117.9316" id="Pagamento" style="stroke: #000000; stroke-width: 1.5;" width="193" x="175.5" y="398.5"/><ellipse cx="236.25" cy="414.5" fill="#ADD1B2" rx="11" ry="11" style="stroke: #000000; stroke-width: 1.0;"/><path d="M237.5938,410.1719 L237.7656,410.25 Q238.0625,409.8438 238.4844,409.8438 Q239.3281,409.8438 239.3281,410.9688 L239.3281,412.3906 Q239.3281,413.5156 238.4844,413.5156 Q238.0938,413.5156 237.9219,413.3125 Q237.75,413.1094 237.6563,412.6094 Q237.5313,412.0156 236.8125,411.6563 Q236.0938,411.2969 235.25,411.2969 Q233.9688,411.2969 233.1094,412.1719 Q232.2656,413.0469 232.2656,414.3906 L232.2656,415.4844 Q232.2656,416.7656 233.1719,417.5313 Q234.0781,418.2813 235.6094,418.2813 Q236.0469,418.2813 236.4063,418.2344 Q236.7813,418.1719 237,418.1094 Q237.2188,418.0469 237.4531,417.9063 Q237.6875,417.7656 237.75,417.7031 Q237.8125,417.6406 237.9688,417.4688 L238.125,417.3125 Q238.3906,417.0469 238.7344,417.0469 Q239.0781,417.0469 239.3281,417.3125 Q239.5938,417.5625 239.5938,417.8906 Q239.5938,418.6094 238.4531,419.2969 Q237.3125,419.9844 235.5625,419.9844 Q233.4063,419.9844 231.9844,418.7188 Q230.5625,417.4531 230.5625,415.5156 L230.5625,414.3906 Q230.5625,412.3594 231.8906,410.9844 Q233.2188,409.5938 235.1875,409.5938 Q236.375,409.5938 237.5938,410.1719 Z "/><text fill="#000000" font-family="sans-serif" font-size="12" lengthAdjust="spacingAndGlyphs" textLength="63" x="256.75" y="418.751">Pagamento</text><line style="stroke: #000000; stroke-width: 1.5;" x1="176.5" x2="367.5" y1="430.5" y2="430.5"/><text fill="#000000" font-family="sans-serif" font-size="11" lengthAdjust="spacingAndGlyphs" textLength="53" x="181.5" y="447.1382">-id: Integer</text><text fill="#000000" font-family="sans-serif" font-size="11" lengthAdjust="spacingAndGlyphs" textLength="68" x="181.5" y="464.6211">-valor: Double</text><text fill="#000000" font-family="sans-serif" font-size="11" lengthAdjust="spacingAndGlyphs" textLength="181" x="181.5" y="482.104">-formaPagamento: FormaPagamento</text><text fill="#000000" font-family="sans-serif" font-size="11" lengthAdjust="spacingAndGlyphs" textLength="124" x="181.5" y="499.5869">-status: StatusPagamento</text><line style="stroke: #000000; stroke-width: 1.5;" x1="176.5" x2="367.5" y1="508.4316" y2="508.4316"/><!--MD5=[65ae3ca6acccc9e84b76c1eddb916e25]
class StatusAgendamento--><rect fill="#FFFFE0" filter="url(#f1ro6532cmolnu)" height="135.4146" id="StatusAgendamento" style="stroke: #000000; stroke-width: 1.5;" width="143" x="403.5" y="390"/><ellipse cx="418.5" cy="406" fill="#EB937F" rx="11" ry="11" style="stroke: #000000; stroke-width: 1.0;"/><path d="M418.5781,403.9219 Q419.4219,403.9219 419.4219,405.0625 L419.4219,406.9844 Q419.4219,408.1094 418.5938,408.1094 Q417.75,408.1094 417.75,406.9844 L417.75,406.875 L416.2969,406.875 L416.2969,409.2969 L420.6563,409.2969 L420.6563,408.4219 Q420.6563,407.2813 421.5,407.2813 Q422.3438,407.2813 422.3438,408.4219 L422.3438,411 L414.3438,411 Q413.2188,411 413.2188,410.1563 Q413.2188,409.2969 414.3438,409.2969 L414.5938,409.2969 L414.5938,402.7813 L414.3438,402.7813 Q413.2188,402.7813 413.2188,401.9375 Q413.2188,401.0938 414.3438,401.0938 L421.9688,401.0938 L421.9688,403.6406 Q421.9688,404.7813 421.125,404.7813 Q420.2813,404.7813 420.2813,403.6406 L420.2813,402.7813 L416.2969,402.7813 L416.2969,405.1875 L417.75,405.1875 L417.75,405.0625 Q417.75,403.9219 418.5781,403.9219 Z "/><text fill="#000000" font-family="sans-serif" font-size="12" lengthAdjust="spacingAndGlyphs" textLength="111" x="432.5" y="410.251">StatusAgendamento</text><line style="stroke: #000000; stroke-width: 1.5;" x1="404.5" x2="545.5" y1="422" y2="422"/><text fill="#000000" font-family="sans-serif" font-size="11" lengthAdjust="spacingAndGlyphs" textLength="62" x="409.5" y="438.6382">AGENDADO</text><text fill="#000000" font-family="sans-serif" font-size="11" lengthAdjust="spacingAndGlyphs" textLength="76" x="409.5" y="456.1211">CONFIRMADO</text><text fill="#000000" font-family="sans-serif" font-size="11" lengthAdjust="spacingAndGlyphs" textLength="68" x="409.5" y="473.604">CANCELADO</text><text fill="#000000" font-family="sans-serif" font-size="11" lengthAdjust="spacingAndGlyphs" textLength="62" x="409.5" y="491.0869">REALIZADO</text><text fill="#000000" font-family="sans-serif" font-size="11" lengthAdjust="spacingAndGlyphs" textLength="51" x="409.5" y="508.5698">AUSENTE</text><line style="stroke: #000000; stroke-width: 1.5;" x1="404.5" x2="545.5" y1="517.4146" y2="517.4146"/><path d="M582,442 L582,472.6616 A0,0 0 0 0 582,472.6616 L826,472.6616 A0,0 0 0 0 826,472.6616 L826,452 L816,442 L704.46,442 L666.07,299.68 L696.46,442 L582,442 A0,0 0 0 0 582,442 " fill="#FBFB77" filter="url(#f1ro6532cmolnu)" style="stroke: #A80036; stroke-width: 1.0;"/><path d="M816,442 L816,452 L826,452 L816,442 " fill="#FBFB77" style="stroke: #A80036; stroke-width: 1.0;"/><text fill="#000000" font-family="sans-serif" font-size="13" lengthAdjust="spacingAndGlyphs" textLength="223" x="588" y="461.936">Classe base para Cliente e Profissional</text><path d="M433,215 L433,236.5 L398.05,240.5 L433,244.5 L433,266.3232 A0,0 0 0 0 433,266.3232 L571,266.3232 A0,0 0 0 0 571,266.3232 L571,225 L561,215 L433,215 A0,0 0 0 0 433,215 " fill="#FBFB77" filter="url(#f1ro6532cmolnu)" style="stroke: #A80036; stroke-width: 1.0;"/><path d="M561,215 L561,225 L571,225 L561,215 " fill="#FBFB77" style="stroke: #A80036; stroke-width: 1.0;"/><text fill="#000000" font-family="sans-serif" font-size="13" lengthAdjust="spacingAndGlyphs" textLength="117" x="439" y="234.936">O status é um enum</text><text fill="#000000" font-family="sans-serif" font-size="13" lengthAdjust="spacingAndGlyphs" textLength="97" x="439" y="255.5977">interno da classe</text><!--MD5=[8a72f9455eae6373e85b5c4b3e6ffd5a]
link Cliente to Pessoa--><path d="M434.34,82.34 C452.67,102.04 478.27,126.62 505,143 C538.8,163.71 555.79,151.35 589,173 C589.47,173.31 589.94,173.61 590.4,173.93 " fill="none" id="Cliente-&gt;Pessoa" style="stroke: #000000; stroke-width: 1.0;"/><polygon fill="none" points="594.92,168.58,606.37,186.41,586.3,179.61,594.92,168.58" style="stroke: #000000; stroke-width: 1.0;"/><!--MD5=[5d96febb9f2fa041aed1ef1ab954b6f8]
link Profissional to Pessoa--><path d="M607.28,91.27 C612.67,100.78 617.94,111.04 622,121 C627.22,133.81 631.73,147.77 635.55,161.48 " fill="none" id="Profissional-&gt;Pessoa" style="stroke: #000000; stroke-width: 1.0;"/><polygon fill="none" points="642.42,160.09,640.66,181.2,628.87,163.6,642.42,160.09" style="stroke: #000000; stroke-width: 1.0;"/><!--MD5=[2822e178b6c667f53b5206cdaf10217c]
link Cliente to Agendamento--><path d="M393.11,82.13 C382.26,106.83 366.81,142.01 353.27,172.84 " fill="none" id="Cliente-Agendamento" style="stroke: #000000; stroke-width: 1.0;"/><text fill="#000000" font-family="sans-serif" font-size="13" lengthAdjust="spacingAndGlyphs" textLength="38" x="377" y="136.936">cliente</text><text fill="#000000" font-family="sans-serif" font-size="13" lengthAdjust="spacingAndGlyphs" textLength="7" x="382.6863" y="105.4764">1</text><text fill="#000000" font-family="sans-serif" font-size="13" lengthAdjust="spacingAndGlyphs" textLength="20" x="335.3777" y="159.2955">0..*</text><!--MD5=[61f886fe6bfd60c88ea2b1084afc94d2]
link Profissional to Agendamento--><path d="M525.87,91.05 C488.55,118.49 438.82,155.06 398.06,185.03 " fill="none" id="Profissional-Agendamento" style="stroke: #000000; stroke-width: 1.0;"/><text fill="#000000" font-family="sans-serif" font-size="13" lengthAdjust="spacingAndGlyphs" textLength="64" x="485" y="136.936">profissional</text><text fill="#000000" font-family="sans-serif" font-size="13" lengthAdjust="spacingAndGlyphs" textLength="7" x="509.8923" y="113.9329">1</text><text fill="#000000" font-family="sans-serif" font-size="13" lengthAdjust="spacingAndGlyphs" textLength="20" x="406.072" y="173.7377">0..*</text><!--MD5=[10c7bc5ed51ba1c3076fd27aae5791af]
reverse link Agendamento to Servico--><path d="M239.8,313.63 C207.39,341.38 170.85,372.68 140.25,398.89 " fill="none" id="Agendamento&lt;-Servico" style="stroke: #000000; stroke-width: 1.0;"/><polygon fill="#FFFFFF" points="249.71,305.13,242.5511,305.996,240.5971,312.9373,247.756,312.0713,249.71,305.13" style="stroke: #000000; stroke-width: 1.0;"/><text fill="#000000" font-family="sans-serif" font-size="13" lengthAdjust="spacingAndGlyphs" textLength="46" x="208" y="353.936">servicos</text><text fill="#000000" font-family="sans-serif" font-size="13" lengthAdjust="spacingAndGlyphs" textLength="7" x="235.0525" y="305.4558">1</text><text fill="#000000" font-family="sans-serif" font-size="13" lengthAdjust="spacingAndGlyphs" textLength="20" x="127.943" y="384.6556">1..*</text><!--MD5=[d2387dec746db055d94954b2b7ed22ad]
link Agendamento to Pagamento--><path d="M307.9,308.05 C300.92,336.91 292.82,370.4 286.09,398.26 " fill="none" id="Agendamento-Pagamento" style="stroke: #000000; stroke-width: 1.0;"/><text fill="#000000" font-family="sans-serif" font-size="13" lengthAdjust="spacingAndGlyphs" textLength="64" x="301" y="353.936">pagamento</text><text fill="#000000" font-family="sans-serif" font-size="13" lengthAdjust="spacingAndGlyphs" textLength="7" x="298.7562" y="331.4816">1</text><text fill="#000000" font-family="sans-serif" font-size="13" lengthAdjust="spacingAndGlyphs" textLength="22" x="264.4666" y="384.8019">0..1</text><!--MD5=[91d2c16de0c9744de57df5b162730ebc]
reverse link Agendamento to StatusAgendamento--><path d="M378.37,318.92 C394.69,342.15 412.44,367.42 428.22,389.89 " fill="none" id="Agendamento&lt;-StatusAgendamento" style="stroke: #000000; stroke-width: 1.0;"/><polygon fill="#000000" points="370.74,308.05,370.9136,315.259,377.6348,317.8715,377.4612,310.6625,370.74,308.05" style="stroke: #000000; stroke-width: 1.0;"/><!--MD5=[9e3b51db4d175962440a1beba68c16c3]
@startuml Diagrama UML de Classes Simplificado - Barbearia

skinparam classAttributeIconSize 0
skinparam class {
    BackgroundColor LightYellow
    BorderColor Black
    ArrowColor Black
}


abstract class Pessoa {
    # id: Integer
    # nome: String
    # telefone: String
    # email: String
}

class Cliente {
    - dataCadastro: LocalDate
}

class Profissional {
    - especialidade: String
    - ativo: boolean
}

class Servico {
    - id: Integer
    - nome: String
    - preco: Double
    - duracaoMinutos: Integer
}

class Agendamento {
    - id: Integer
    - data: LocalDate
    - hora: LocalTime
    - status: StatusAgendamento
    - observacoes: String
}

class Pagamento {
    - id: Integer
    - valor: Double
    - formaPagamento: FormaPagamento
    - status: StatusPagamento
}

enum StatusAgendamento {
    AGENDADO
    CONFIRMADO
    CANCELADO
    REALIZADO
    AUSENTE
}


Cliente - -|> Pessoa
Profissional - -|> Pessoa

Cliente "1" - - "0..*" Agendamento : cliente
Profissional "1" - - "0..*" Agendamento : profissional
Agendamento "1" o- - "1..*" Servico : servicos
Agendamento "1" - - "0..1" Pagamento : pagamento

Agendamento *- - StatusAgendamento

note bottom of Pessoa
  Classe base para Cliente e Profissional
end note

note right of Agendamento
  O status é um enum
  interno da classe
end note

@enduml

PlantUML version 1.2020.02(Sun Mar 01 05:22:07 EST 2020)
(GPL source distribution)
Java Runtime: OpenJDK Runtime Environment
JVM: OpenJDK 64-Bit Server VM
Java Version: 11.0.29+7-post-Ubuntu-1ubuntu122.04
Operating System: Linux
Default Encoding: UTF-8
Language: en
Country: null
--></g></svg>
